<svg xmlns="http://www.w3.org/2000/svg" xmlns:xlink="http://www.w3.org/1999/xlink" viewBox="0 0 156 150" width="156" height="150" preserveAspectRatio="xMidYMid meet" style="width: 100%; height: 100%; transform: translate3d(0px, 0px, 0px); content-visibility: visible;"><defs><clipPath id="__lottie_element_95"><rect width="156" height="150" x="0" y="0"></rect></clipPath><radialGradient id="__lottie_element_102" spreadMethod="pad" gradientUnits="userSpaceOnUse" cx="0" cy="0" r="80" fx="0" fy="0"><stop offset="0%" stop-color="rgb(243,243,243)"></stop><stop offset="50%" stop-color="rgb(236,236,236)"></stop><stop offset="100%" stop-color="rgb(229,229,229)"></stop></radialGradient><symbol id="__lottie_element_103"><g><g transform="matrix(1,0,0,1,78,54.5)" opacity="1" style="display: block;"><g opacity="1" transform="matrix(1,0,0,1,0,0)"><path fill="rgb(228,228,228)" fill-opacity="1" d=" M32,70.5 C32,70.5 32,79.5 32,79.5 C32,80.60379791259766 31.10379981994629,81.5 30,81.5 C30,81.5 -76,81.5 -76,81.5 C-77.10379791259766,81.5 -78,80.60379791259766 -78,79.5 C-78,79.5 -78,70.5 -78,70.5 C-78,69.39620208740234 -77.10379791259766,68.5 -76,68.5 C-76,68.5 30,68.5 30,68.5 C31.10379981994629,68.5 32,69.39620208740234 32,70.5z M59,90.5 C59,90.5 59,93.5 59,93.5 C59,94.60379791259766 58.10380172729492,95.5 57,95.5 C57,95.5 -75,95.5 -75,95.5 C-76.10379791259766,95.5 -77,94.60379791259766 -77,93.5 C-77,93.5 -77,90.5 -77,90.5 C-77,89.39620208740234 -76.10379791259766,88.5 -75,88.5 C-75,88.5 57,88.5 57,88.5 C58.10380172729492,88.5 59,89.39620208740234 59,90.5z M78,-52.5 C78,-52.5 78,52.5 78,52.5 C78,53.60380172729492 77.10379791259766,54.5 76,54.5 C76,54.5 -76,54.5 -76,54.5 C-77.10379791259766,54.5 -78,53.60380172729492 -78,52.5 C-78,52.5 -78,-52.5 -78,-52.5 C-78,-53.60380172729492 -77.10379791259766,-54.5 -76,-54.5 C-76,-54.5 76,-54.5 76,-54.5 C77.10379791259766,-54.5 78,-53.60380172729492 78,-52.5z"></path></g></g></g></symbol><mask id="__lottie_element_103_1" mask-type="alpha"><use xlink:href="#__lottie_element_103"></use></mask></defs><g clip-path="url(#__lottie_element_95)"><g transform="matrix(1,0,0,1,78,54.5)" opacity="1" style="display: block;"><g opacity="1" transform="matrix(1,0,0,1,0,0)"><path fill="rgb(228,228,228)" fill-opacity="1" d=" M32,69.5 C32,69.5 32,80.5 32,80.5 C32,81.0519027709961 31.55190086364746,81.5 31,81.5 C31,81.5 -77,81.5 -77,81.5 C-77.5519027709961,81.5 -78,81.0519027709961 -78,80.5 C-78,80.5 -78,69.5 -78,69.5 C-78,68.9480972290039 -77.5519027709961,68.5 -77,68.5 C-77,68.5 31,68.5 31,68.5 C31.55190086364746,68.5 32,68.9480972290039 32,69.5z M58,89.5 C58,89.5 58,94.5 58,94.5 C58,95.0519027709961 57.55189895629883,95.5 57,95.5 C57,95.5 -77,95.5 -77,95.5 C-77.5519027709961,95.5 -78,95.0519027709961 -78,94.5 C-78,94.5 -78,89.5 -78,89.5 C-78,88.9480972290039 -77.5519027709961,88.5 -77,88.5 C-77,88.5 57,88.5 57,88.5 C57.55189895629883,88.5 58,88.9480972290039 58,89.5z M78,-52.5 C78,-52.5 78,52.5 78,52.5 C78,53.60380172729492 77.10379791259766,54.5 76,54.5 C76,54.5 -76,54.5 -76,54.5 C-77.10379791259766,54.5 -78,53.60380172729492 -78,52.5 C-78,52.5 -78,-52.5 -78,-52.5 C-78,-53.60380172729492 -77.10379791259766,-54.5 -76,-54.5 C-76,-54.5 76,-54.5 76,-54.5 C77.10379791259766,-54.5 78,-53.60380172729492 78,-52.5z"></path></g></g><g mask="url(#__lottie_element_103_1)" style="display: block;"><g transform="matrix(0.38337966799736023,0.25490978360176086,-0.553682267665863,0.8327280282974243,334.0370788574219,221.06553649902344)" opacity="1"><g opacity="1" transform="matrix(1.4506299495697021,0,0,1.708840012550354,-266.6809997558594,2.61299991607666)"><path fill="url(#__lottie_element_102)" fill-opacity="1" d=" M78,-75 C78,-75 -78,-75 -78,-75 C-78,-75 -78,75 -78,75 C-78,75 78,75 78,75 C78,75 78,-75 78,-75z"></path></g></g></g></g></svg>